<?xml version="1.0" standalone="no"?>
<!DOCTYPE svg PUBLIC "-//W3C//DTD SVG 20010904//EN"
 "http://www.w3.org/TR/2001/REC-SVG-20010904/DTD/svg10.dtd">
<svg version="1.0" xmlns="http://www.w3.org/2000/svg"
 width="500.000000pt" height="500.000000pt" viewBox="0 0 500.000000 500.000000"
 preserveAspectRatio="xMidYMid meet">
<metadata>
Created by potrace 1.16, written by Peter Selinger 2001-2019
</metadata>
<g transform="translate(0.000000,500.000000) scale(0.100000,-0.100000)"
fill="#000000" stroke="none">
<path d="M0 2500 l0 -2500 2500 0 2500 0 0 2500 0 2500 -2500 0 -2500 0 0
-2500z m2585 1555 c108 -17 241 -55 320 -90 46 -20 78 -26 164 -29 109 -5 225
-30 316 -69 60 -25 152 -78 186 -106 l24 -20 -172 -1 c-104 0 -173 4 -173 10
0 19 -45 50 -74 50 -84 0 -106 -117 -27 -149 24 -11 34 -10 60 4 18 9 35 23
38 31 4 11 39 14 200 14 228 0 215 5 314 -118 47 -58 79 -86 132 -117 l69 -40
-191 -3 -192 -2 -25 30 c-41 48 -111 38 -132 -21 -13 -36 0 -71 34 -91 26 -15
36 -16 63 -7 17 6 36 20 42 30 9 18 24 19 237 19 l227 0 58 -52 58 -51 -118
-63 -118 -63 -163 -1 -163 0 -26 30 c-48 58 -137 24 -135 -51 2 -71 92 -101
136 -46 l22 27 168 0 168 0 129 68 129 67 21 -25 c29 -37 99 -138 99 -144 0
-4 -42 -6 -94 -6 l-94 0 -141 -75 -140 -75 -120 0 c-119 0 -119 0 -149 30 -37
36 -71 38 -108 7 -36 -32 -36 -83 1 -114 36 -31 71 -29 107 7 l30 30 124 0
125 0 132 72 132 72 111 4 111 4 18 -44 c21 -52 55 -159 55 -174 0 -8 -55 -14
-177 -19 l-178 -8 -147 -78 -147 -79 -83 0 c-77 0 -84 2 -104 27 -39 49 -129
28 -134 -32 -4 -39 0 -55 22 -75 33 -31 81 -26 111 10 l26 30 246 0 246 0 113
-95 114 -95 56 0 56 0 -1 -52 c0 -29 -8 -89 -17 -133 l-17 -80 -135 -2 -135
-3 -110 95 -110 95 -153 0 -154 0 -28 30 c-33 35 -67 38 -104 9 -20 -16 -26
-29 -26 -59 0 -30 6 -43 26 -59 37 -29 70 -26 106 9 l30 30 144 0 145 0 110
-95 110 -95 129 0 c99 0 130 -3 130 -13 0 -27 -75 -138 -130 -192 l-57 -56
-195 110 -195 111 -97 0 c-96 0 -99 1 -126 30 -33 35 -67 38 -104 9 -53 -42
-21 -139 47 -139 18 0 39 10 59 30 28 29 33 30 120 30 l90 0 180 -102 180
-103 -55 -25 c-29 -14 -65 -29 -78 -35 -18 -8 -26 -21 -32 -60 -11 -64 -56
-159 -102 -212 -46 -54 -134 -107 -210 -127 -33 -8 -120 -22 -193 -30 -215
-25 -238 -44 -229 -179 3 -54 14 -106 32 -152 42 -111 42 -103 -6 -125 -45
-20 -143 -27 -208 -14 -26 5 -31 12 -36 43 -23 143 -38 193 -84 286 -102 204
-251 337 -460 410 -66 23 -76 24 -144 14 -302 -47 -661 103 -769 321 -29 59
-58 159 -58 200 l0 25 -173 0 c-131 0 -191 5 -250 18 l-78 19 63 49 63 49 213
0 214 0 28 -30 c36 -38 77 -40 110 -5 30 32 30 78 0 110 -33 35 -74 33 -110
-5 l-28 -30 -221 0 -220 0 -80 -61 -80 -61 -52 28 c-71 39 -151 118 -183 182
l-26 52 179 0 179 0 78 60 78 60 218 0 217 0 25 -25 c72 -72 185 29 116 103
-30 32 -92 30 -118 -3 l-20 -25 -225 0 c-187 0 -227 -3 -237 -15 -7 -8 -43
-37 -80 -65 l-67 -50 -180 0 -180 0 -12 57 c-6 31 -11 76 -11 100 l0 43 196 0
196 0 110 85 111 85 226 0 226 0 24 -25 c48 -51 131 -20 131 50 0 71 -85 103
-134 50 l-23 -25 -365 0 -366 0 -108 96 c-60 53 -117 104 -128 114 -18 17 -17
20 22 97 52 103 130 223 145 223 8 0 381 -321 385 -332 2 -4 111 -8 242 -8
221 0 240 -1 252 -18 34 -48 93 -50 128 -5 27 34 25 64 -5 97 -34 37 -78 35
-115 -4 l-28 -30 -222 0 -222 0 -176 152 c-98 83 -185 159 -196 169 -18 17
-16 19 50 85 73 72 160 144 174 144 5 0 55 -76 112 -170 l103 -169 224 -1 225
0 28 -27 c37 -36 83 -36 115 1 30 35 29 71 -2 101 -36 37 -88 34 -117 -5 l-22
-30 -212 0 -212 0 -101 162 c-68 109 -97 165 -91 173 16 19 181 93 245 110 32
8 75 15 94 15 20 0 59 14 95 34 70 39 219 96 328 126 175 48 433 63 603 35z
m623 -326 c4 -31 -20 -53 -48 -44 -14 4 -20 15 -20 34 0 35 8 43 40 39 19 -2
26 -10 28 -29z m320 -320 c4 -31 -20 -53 -46 -44 -44 13 -30 78 16 73 21 -2
28 -9 30 -29z m-1578 -4 c26 -32 -13 -81 -47 -59 -35 22 -23 74 17 74 10 0 23
-7 30 -15z m-70 -250 c26 -32 -13 -81 -47 -59 -35 22 -23 74 17 74 10 0 23 -7
30 -15z m1648 -16 c4 -31 -20 -53 -46 -44 -44 13 -30 78 16 73 21 -2 28 -9 30
-29z m-2685 -158 l119 -106 111 -5 111 -5 -84 -62 -84 -63 -193 0 -193 0 6 58
c15 137 59 306 77 295 7 -4 65 -54 130 -112z m2682 -75 c0 -16 -7 -33 -16 -39
-26 -16 -49 -1 -49 31 0 36 8 44 40 40 20 -2 25 -8 25 -32z m-1710 -11 c0 -27
-3 -30 -30 -30 -21 0 -31 5 -33 18 -6 33 6 49 35 45 24 -3 28 -8 28 -33z
m2589 -172 c3 -21 6 -93 6 -160 l0 -123 -50 0 c-49 0 -54 3 -153 87 -56 47
-103 90 -105 95 -2 4 -65 8 -140 8 l-137 0 105 57 c103 57 107 58 205 64 55 3
137 6 181 7 l81 2 7 -37z m-886 -82 c8 -5 12 -21 10 -37 -2 -22 -9 -30 -27
-32 -29 -4 -53 22 -44 46 11 30 36 39 61 23z m-1773 -36 c0 -26 -4 -30 -32
-33 -25 -2 -33 1 -38 18 -9 28 12 52 44 48 22 -2 26 -8 26 -33z m-85 -285 c8
-14 8 -26 0 -40 -18 -33 -70 -23 -70 14 0 45 50 63 70 26z m1865 -14 c0 -16
-7 -33 -16 -39 -26 -16 -49 -1 -49 31 0 36 8 44 40 40 20 -2 25 -8 25 -32z m3
-264 c7 -47 -47 -72 -68 -32 -16 31 4 62 38 58 19 -2 28 -10 30 -26z"/>
<path d="M2138 3479 c-21 -11 -5 41 -183 -624 -79 -297 -169 -632 -199 -745
-31 -113 -56 -213 -56 -222 0 -10 9 -27 20 -38 17 -17 33 -20 110 -20 73 0 93
3 108 18 10 10 30 67 46 127 40 161 31 155 269 155 134 0 200 -4 217 -13 26
-13 27 -16 70 -172 31 -112 34 -115 145 -115 103 0 125 12 125 67 0 16 -31
144 -69 284 -105 385 -244 903 -296 1099 -33 126 -52 180 -67 193 -16 14 -39
17 -122 17 -55 0 -109 -5 -118 -11z m156 -691 c18 -17 34 -57 62 -158 65 -236
63 -243 -75 -249 -110 -4 -136 2 -157 34 -16 24 -14 33 26 183 49 179 53 190
83 202 32 13 33 12 61 -12z"/>
<path d="M3072 3474 l-22 -15 0 -798 c0 -760 1 -799 18 -814 14 -13 39 -17
105 -17 142 0 127 -95 127 830 0 924 14 830 -123 830 -59 0 -89 -5 -105 -16z"/>
</g>
</svg>
